# xmcd
#
# Track frame offsets:
#	150
#	16016
#	27523
#	41960
#	58335
#	70402
#	85017
#	99092
#	112742
#	123454
#	141099
#	156071
#	168176
#	184169
#	200768
#	215767
#
# Disc length: 3105 seconds
# Revision: 2
# Processed by: cddbd v1.5.2PL0 Copyright (c) Steve Scherf et al.
# Submitted via: dBpowerAMP V12.0
#
DISCID=de0c1f10
DTITLE=Various Artist - Time Life Superstars Of Country Volume 1
DYEAR=2005
DGENRE=Country
TTITLE0=Ray Stevens - Everything Is Beautiful
TTITLE1=Crystal Gayle - Don't It Make My Brown Eyes Blue
TTITLE2=The Bellamy Brothers - Let Your Love Flow
TTITLE3=Olivia Newton John - I Honestly Love You
TTITLE4=Charlie Rich - The Most Beautiful Girl In The World
TTITLE5=Anne Murray - Could I Have This Dance
TTITLE6=George Jones - The Grand Tour
TTITLE7=Loretta Lynn - Coal Miners Daughter
TTITLE8=Merle Haggard - Today I Started Loving Agian
TTITLE9=Linda Ronstadt - Blue Beyou
TTITLE10=Alabama - Love In The First Degree
TTITLE11=Marie Osmond - Paper Roses
TTITLE12=Willie Nelson - Always On My Mind
TTITLE13=Mary MacGregor - Torn Between Two Lovers
TTITLE14=Waylon Jennings - Luckenbach, Texas (Back To The Basics Of Love)
TTITLE15=Johnny Cash - A Boy Named Sue
EXTD=
EXTT0=
EXTT1=
EXTT2=
EXTT3=
EXTT4=
EXTT5=
EXTT6=
EXTT7=
EXTT8=
EXTT9=
EXTT10=
EXTT11=
EXTT12=
EXTT13=
EXTT14=
EXTT15=
PLAYORDER=
